<?xml version="1.0" encoding="UTF-8" standalone="no"?>
<!-- Created with Inkscape (http://www.inkscape.org/) -->

<svg
   xmlns:dc="http://purl.org/dc/elements/1.1/"
   xmlns:cc="http://creativecommons.org/ns#"
   xmlns:rdf="http://www.w3.org/1999/02/22-rdf-syntax-ns#"
   xmlns:svg="http://www.w3.org/2000/svg"
   xmlns="http://www.w3.org/2000/svg"
   xmlns:sodipodi="http://sodipodi.sourceforge.net/DTD/sodipodi-0.dtd"
   xmlns:inkscape="http://www.inkscape.org/namespaces/inkscape"
   width="16"
   height="32"
   viewBox="0 0 15.999999 31.999998"
   id="svg2"
   version="1.1"
   inkscape:version="0.91 r13725"
   sodipodi:docname="flechaleft.svg"
   inkscape:export-filename="/home/jesus/g33566.png"
   inkscape:export-xdpi="90"
   inkscape:export-ydpi="90">
  <defs
     id="defs4" />
  <sodipodi:namedview
     id="base"
     pagecolor="#ffffff"
     bordercolor="#666666"
     borderopacity="1.0"
     inkscape:pageopacity="0.0"
     inkscape:pageshadow="2"
     inkscape:zoom="11.2"
     inkscape:cx="6.6563079"
     inkscape:cy="17.610267"
     inkscape:document-units="px"
     inkscape:current-layer="layer1"
     showgrid="false"
     units="px"
     inkscape:window-width="1440"
     inkscape:window-height="836"
     inkscape:window-x="0"
     inkscape:window-y="27"
     inkscape:window-maximized="1" />
  <metadata
     id="metadata7">
    <rdf:RDF>
      <cc:Work
         rdf:about="">
        <dc:format>image/svg+xml</dc:format>
        <dc:type
           rdf:resource="http://purl.org/dc/dcmitype/StillImage" />
        <dc:title></dc:title>
      </cc:Work>
    </rdf:RDF>
  </metadata>
  <g
     inkscape:label="Capa 1"
     inkscape:groupmode="layer"
     id="layer1"
     transform="translate(0,-1020.3622)">
    <g
       id="g3356"
       transform="matrix(0.14791377,0,0,0.14791377,-6.7010332,1014.4672)">
      <g
         id="#ffffffff" />
      <g
         id="#958a21ff">
        <path
           id="path3340"
           d="m 69.38,105.55 c 4.19,-0.49 8.41,-0.16 12.61,-0.23 24.01,-0.06 48.01,-0.46 72.01,-0.35 26,0.02 52.01,0.48 78.01,0.4 5.06,-0.41 10.72,3.19 10.7,8.64 0.41,22.34 0.47,44.7 0.08,67.04 0.32,5.23 -4.84,9.29 -9.76,9.25 -21.68,0.53 -43.36,-0.51 -65.03,-0.04 -32.32,-0.34 -64.64,-0.05 -96.95,-0.65 -2.27,0 -4.56,-0.81 -6.03,-2.61 -3.34,-3.45 -2.32,-8.64 -2.5,-13 -0.08,-20.01 -0.11,-40.02 0.07,-60.02 -0.34,-4.02 2.95,-7.73 6.79,-8.43 m 0.03,2.1 c -3.7,0.79 -5.44,4.8 -5.19,8.28 -0.21,21.03 -0.28,42.07 0.03,63.1 -0.06,3.21 1.14,6.94 4.44,8.11 4.36,0.96 8.88,0.39 13.31,0.51 50.68,0 101.37,0.09 152.05,0.01 4.18,0.41 7.03,-3.77 6.77,-7.61 0.22,-21.37 0.15,-42.75 0.02,-64.13 -0.02,-2.33 -0.52,-4.82 -2.3,-6.47 -2.71,-2.86 -7.03,-1.85 -10.54,-2.06 -48.33,0 -96.67,-0.09 -145,-0.01 -4.53,0.09 -9.09,-0.36 -13.59,0.27 z"
           inkscape:connector-curvature="0"
           style="opacity:1;fill:#958a21" />
      </g>
      <g
         id="#ffcc00ff">
        <path
           id="path3343"
           d="m 63.7,101.51 c 9.4,-0.94 18.87,-0.63 28.3,-0.73 25.33,-0.18 50.67,-0.04 76,0.27 24.7,-0.75 49.4,0.53 74.09,0.1 4.35,1.36 6.86,6.43 6.43,10.82 -0.16,24.36 0.04,48.72 0,73.07 0.25,5.12 -3.96,10.75 -9.46,10.21 -56.36,0.21 -112.72,-0.04 -169.08,0.1 -4.24,0.01 -9.68,-0.94 -11.31,-5.48 -0.42,-2.61 -0.23,-5.25 -0.25,-7.88 -0.03,-24.01 -0.08,-48.03 0.01,-72.04 -0.45,-3.72 2.62,-6.39 5.27,-8.44 m 5.68,4.04 c -3.84,0.7 -7.13,4.41 -6.79,8.43 -0.18,20 -0.15,40.01 -0.07,60.02 0.18,4.36 -0.84,9.55 2.5,13 1.47,1.8 3.76,2.61 6.03,2.61 32.31,0.6 64.63,0.31 96.95,0.65 21.67,-0.47 43.35,0.57 65.03,0.04 4.92,0.04 10.08,-4.02 9.76,-9.25 0.39,-22.34 0.33,-44.7 -0.08,-67.04 0.02,-5.45 -5.64,-9.05 -10.7,-8.64 -26,0.08 -52.01,-0.38 -78.01,-0.4 -24,-0.11 -48,0.29 -72.01,0.35 -4.2,0.07 -8.42,-0.26 -12.61,0.23 z"
           inkscape:connector-curvature="0"
           style="opacity:1;fill:#ffcc00" />
        <path
           id="path3345"
           d="m 69.41,107.65 c 4.5,-0.63 9.06,-0.18 13.59,-0.27 48.33,-0.08 96.67,0.01 145,0.01 3.51,0.21 7.83,-0.8 10.54,2.06 1.78,1.65 2.28,4.14 2.3,6.47 0.13,21.38 0.2,42.76 -0.02,64.13 0.26,3.84 -2.59,8.02 -6.77,7.61 -50.68,0.08 -101.37,-0.01 -152.05,-0.01 -4.43,-0.12 -8.95,0.45 -13.31,-0.51 -3.3,-1.17 -4.5,-4.9 -4.44,-8.11 -0.31,-21.03 -0.24,-42.07 -0.03,-63.1 -0.25,-3.48 1.49,-7.49 5.19,-8.28 m 37.51,22.21 c -9.35,5.87 -18.64,11.83 -28.05,17.6 0.68,2.67 3.19,3.99 5.27,5.45 7.95,6.1 16.58,11.23 24.54,17.32 2.07,1.43 5.77,4 7.37,0.63 0.42,-3.92 -1.75,-7.71 -2.2,-11.62 25.72,-0.39 51.46,-0.33 77.19,-0.01 0.03,4.6 -3.12,8.94 -1.57,13.5 1.75,-0.09 3.66,-0.01 5.14,-1.14 6.81,-4.5 13.3,-9.45 20.16,-13.87 4.08,-3.18 8.74,-5.69 12.16,-9.65 -7.66,-4.67 -15.1,-9.68 -22.82,-14.23 -3.95,-2.38 -7.54,-5.45 -11.9,-7.09 -1.33,-0.47 -3.1,-0.95 -3.97,0.55 -0.2,4.15 1.35,8.09 2.5,12.01 -6.19,1.02 -12.5,0.24 -18.74,0.5 -19.04,1.01 -38.09,-0.28 -57.14,-0.14 0.34,-4.49 2.47,-8.78 1.66,-13.34 -3.64,-0.87 -6.68,1.81 -9.6,3.53 z"
           inkscape:connector-curvature="0"
           style="opacity:1;fill:#ffcc00" />
      </g>
      <g
         id="#000000ff">
        <path
           id="path3348"
           d="m 106.92,129.86 c 2.92,-1.72 5.96,-4.4 9.6,-3.53 0.81,4.56 -1.32,8.85 -1.66,13.34 19.05,-0.14 38.1,1.15 57.14,0.14 6.24,-0.26 12.55,0.52 18.74,-0.5 -1.15,-3.92 -2.7,-7.86 -2.5,-12.01 0.87,-1.5 2.64,-1.02 3.97,-0.55 4.36,1.64 7.95,4.71 11.9,7.09 7.72,4.55 15.16,9.56 22.82,14.23 -3.42,3.96 -8.08,6.47 -12.16,9.65 -6.86,4.42 -13.35,9.37 -20.16,13.87 -1.48,1.13 -3.39,1.05 -5.14,1.14 -1.55,-4.56 1.6,-8.9 1.57,-13.5 -25.73,-0.32 -51.47,-0.38 -77.19,0.01 0.45,3.91 2.62,7.7 2.2,11.62 -1.6,3.37 -5.3,0.8 -7.37,-0.63 -7.96,-6.09 -16.59,-11.22 -24.54,-17.32 -2.08,-1.46 -4.59,-2.78 -5.27,-5.45 9.41,-5.77 18.7,-11.73 28.05,-17.6 z"
           inkscape:connector-curvature="0"
           style="opacity:1;fill:#000000" />
      </g>
    </g>
  </g>
</svg>
